<?xml version="1.0" encoding="iso-8859-1"?>
<!-- Generator: Adobe Illustrator 19.0.0, SVG Export Plug-In . SVG Version: 6.00 Build 0)  -->
<svg version="1.1" id="Capa_1" xmlns="http://www.w3.org/2000/svg" xmlns:xlink="http://www.w3.org/1999/xlink" x="0px" y="0px"
	 viewBox="0 0 512 512" style="enable-background:new 0 0 512 512;" xml:space="preserve">
<path style="fill:#FFCE54;" d="M479.039,409.945c1.039,4.32-1.602,8.641-5.914,9.68c-4.25,1.039-8.563-1.602-9.609-5.922
	c-1.031-4.32,1.609-8.563,5.844-9.68h0.078C473.68,403.063,478,405.703,479.039,409.945z"/>
<g>
	<path style="fill:#3A3847;" d="M463.789,392.734c-5.523,0-10.289-3.789-11.602-9.211c-1.547-6.445,2.438-12.953,8.875-14.508
		c6.344-1.531,12.867,2.523,14.422,8.852c0.758,3.148,0.25,6.383-1.422,9.117s-4.32,4.656-7.453,5.406
		C465.688,392.617,464.734,392.734,463.789,392.734z M463.859,376.68c-0.313,0-0.617,0.039-0.922,0.117
		c-2.156,0.516-3.484,2.695-2.969,4.859c0.516,2.125,2.609,3.484,4.781,2.953c2.148-0.516,3.484-2.688,2.961-4.852
		C467.281,377.984,465.656,376.68,463.859,376.68z"/>
	<path style="fill:#3A3847;" d="M432.695,400.172c-5.539,0-10.32-3.789-11.625-9.219c-1.555-6.438,2.43-12.953,8.875-14.5
		c6.672-1.516,12.883,2.609,14.422,8.859c1.547,6.438-2.273,12.797-8.703,14.5c-0.164,0.047-0.336,0.078-0.508,0.102
		C434.344,400.086,433.516,400.172,432.695,400.172z M432.641,384.141c-0.297,0-0.594,0.039-0.875,0.109
		c-2.109,0.5-3.438,2.68-2.914,4.844c0.508,2.109,2.664,3.477,4.758,2.969c0.078-0.023,0.164-0.039,0.25-0.055
		c2.039-0.664,3.234-2.727,2.734-4.805C436.156,385.438,434.5,384.141,432.641,384.141z"/>
</g>
<path style="fill:#FFCE54;" d="M447.922,417.383c1.039,4.32-1.602,8.641-5.922,9.68c-4.32,1.047-8.563-1.594-9.602-5.922
	c-1.039-4.313,1.602-8.641,5.922-9.672C442.641,410.5,446.875,413.141,447.922,417.383z"/>
<g>
	<path style="fill:#ED5565;" d="M471.602,378.813c1.039,4.32-1.602,8.641-5.914,9.68c-4.25,1.039-8.563-1.602-9.609-5.922
		c-1.031-4.32,1.609-8.555,5.844-9.68H462C466.242,371.93,470.563,374.57,471.602,378.813z"/>
	<path style="fill:#ED5565;" d="M440.484,386.25c1.039,4.32-1.602,8.641-5.922,9.68s-8.563-1.602-9.602-5.914
		c-1.039-4.328,1.602-8.641,5.922-9.688C435.203,379.375,439.438,382.016,440.484,386.25z"/>
</g>
<g>
	<path style="fill:#AAB2BD;" d="M442,427.063c4.32-1.039,6.961-5.359,5.922-9.68c-1.047-4.242-5.281-6.883-9.602-5.914l31.039-7.445
		c-4.234,1.117-6.875,5.359-5.844,9.68c1.047,4.32,5.359,6.961,9.609,5.922L442,427.063z"/>
	<path style="fill:#AAB2BD;" d="M456.078,382.586c1.047,4.32,5.281,6.961,9.602,5.914l-31.039,7.445
		c4.234-1.117,6.875-5.359,5.844-9.68c-1.047-4.242-5.359-6.883-9.609-5.922L462,372.906
		C457.68,373.945,455.039,378.266,456.078,382.586z"/>
	<path style="fill:#AAB2BD;" d="M340,376.023c13.281,0,24,10.719,24,24c0,13.195-10.719,24-24,24s-24-10.805-24-24
		C316,386.742,326.719,376.023,340,376.023z"/>
</g>
<g style="opacity:0.5;">
	<path style="fill:#FFFFFF;" d="M324,400.023c0-11.914,8.641-21.695,20-23.602c-1.313-0.219-2.625-0.398-4-0.398
		c-13.281,0-24,10.719-24,24c0,13.195,10.719,24,24,24c1.375,0,2.688-0.18,4-0.406C332.641,421.703,324,411.859,324,400.023z"/>
</g>
<g style="opacity:0.2;">
	<path d="M356,400.023c0-11.914-8.641-21.695-20-23.602c1.313-0.219,2.625-0.398,4-0.398c13.281,0,24,10.719,24,24
		c0,13.195-10.719,24-24,24c-1.375,0-2.688-0.18-4-0.406C347.359,421.703,356,411.859,356,400.023z"/>
</g>
<path style="fill:#656D78;" d="M434.641,395.945l31.039-7.445c4.32-1.031,6.961-5.359,5.922-9.672
	c-1.039-4.242-5.281-6.969-9.602-5.922l-31.125,7.438c-4.313,1.039-6.953,5.359-5.914,9.68s5.359,6.961,9.602,5.922L434.641,395.945
	L434.641,395.945z M469.359,404.023l-31.039,7.445c-4.32,1.031-6.961,5.359-5.922,9.672c1.039,4.328,5.281,6.969,9.602,5.922
	l31.125-7.438c4.313-1.039,6.953-5.359,5.914-9.68c-1.039-4.242-5.359-6.883-9.602-5.922L469.359,404.023L469.359,404.023z
	 M340,424.023c13.281,0,24-10.805,24-24c0-13.281-10.719-24-24-24s-24,10.719-24,24C316,413.219,326.719,424.023,340,424.023z
	 M412.797,440.023h-33.594c-10.078,9.836-23.922,16-39.203,16c-30.961,0-56-25.117-56-56c0-30.961,25.039-56,56-56h52h60
	c30.961,0,56,25.039,56,56c0,30.883-25.039,56-56,56C436.719,456.023,422.875,449.859,412.797,440.023z"/>
<g style="opacity:0.3;">
	<path style="fill:#FFFFFF;" d="M292,400.023c0-30.961,25.039-56,56-56h-8c-30.961,0-56,25.039-56,56c0,30.883,25.039,56,56,56
		c1.359,0,2.688-0.102,4.016-0.203C314.922,453.766,292,429.563,292,400.023z"/>
</g>
<g style="opacity:0.2;">
	<path d="M500,400.023c0-30.961-25.039-56-56-56h8c30.961,0,56,25.039,56,56c0,30.883-25.039,56-56,56
		c-1.359,0-2.688-0.102-4.016-0.203C477.078,453.766,500,429.563,500,400.023z"/>
</g>
<polygon style="fill:#CCD1D9;" points="4,400.023 4,72.023 28,72.023 28,104.023 28,368.023 28,400.023 "/>
<path style="fill:#AC92EC;" d="M372,240.023h56c8.875,0,16-7.199,16-16v-152H28v32v264v32h256c0-30.961,25.039-56,56-56h52v-24
	c0-8.883,7.125-16,16-16h20c8.875,0,16-7.195,16-16c0-8.883-7.125-16-16-16h-56c-8.875,0-16-7.195-16-16
	C356,247.145,363.125,240.023,372,240.023z"/>
<g style="opacity:0.2;">
	<path d="M384,320.023v24h8v-24c0-8.883,7.125-16,16-16h-8C391.125,304.023,384,311.141,384,320.023z"/>
	<path d="M428,272.023h-8c8.875,0,16,7.117,16,16c0,8.805-7.125,16-16,16h8c8.875,0,16-7.195,16-16
		C444,279.141,436.875,272.023,428,272.023z"/>
	<path d="M436,72.023v152c0,8.801-7.125,16-16,16h8c8.875,0,16-7.199,16-16v-152C444,72.023,436,72.023,436,72.023z"/>
</g>
<path style="fill:#656D78;" d="M12,56.023h424c4.398,0,8,3.602,8,8v8H28H4v-8C4,59.625,7.602,56.023,12,56.023z"/>
<g style="opacity:0.2;">
	<path d="M436,56.023h-8c4.398,0,8,3.602,8,8v8h8v-8C444,59.625,440.398,56.023,436,56.023z"/>
</g>
<g style="opacity:0.3;">
	<path style="fill:#FFFFFF;" d="M20,56.023h-8c-4.398,0-8,3.602-8,8v8h8v-8C12,59.625,15.602,56.023,20,56.023z"/>
</g>
<g style="opacity:0.5;">
	<rect x="4" y="72.02" style="fill:#FFFFFF;" width="8" height="328"/>
</g>
<g style="opacity:0.2;">
	<rect x="28" y="72.02" width="8" height="328"/>
</g>
<g style="opacity:0.2;">
	<rect x="20" y="72.02" width="8" height="328"/>
</g>
<g>
	<path style="fill:#3A3847;" d="M20.238,68c-2.207,0-4.039-1.789-4.039-4s1.75-4,3.961-4h0.078c2.211,0,4,1.789,4,4
		S22.449,68,20.238,68z"/>
	<path style="fill:#3A3847;" d="M36.238,68c-2.207,0-4.039-1.789-4.039-4s1.75-4,3.961-4h0.078c2.211,0,4,1.789,4,4
		S38.449,68,36.238,68z"/>
	<path style="fill:#3A3847;" d="M52.238,68c-2.207,0-4.039-1.789-4.039-4s1.75-4,3.961-4h0.078c2.211,0,4,1.789,4,4
		S54.449,68,52.238,68z"/>
	<path style="fill:#3A3847;" d="M444,76H4c-2.211,0-4-1.789-4-4v-8c0-6.617,5.383-12,12-12h424c6.617,0,12,5.383,12,12v8
		C448,74.211,446.211,76,444,76z M8,68h432v-4c0-2.207-1.797-4-4-4H12c-2.168,0-4,1.832-4,4V68z"/>
	<path style="fill:#3A3847;" d="M4,404c-2.211,0-4-1.789-4-4V72c0-2.211,1.789-4,4-4h440c2.211,0,4,1.789,4,4s-1.789,4-4,4H8v324
		C8,402.211,6.211,404,4,404z"/>
	<path style="fill:#3A3847;" d="M28.004,396c-2.211,0-4-1.789-4-4V80c0-2.211,1.789-4,4-4s4,1.789,4,4v312
		C32.004,394.211,30.215,396,28.004,396z"/>
	<path style="fill:#3A3847;" d="M20.004,108h-8c-2.211,0-4-1.789-4-4s1.789-4,4-4h8c2.211,0,4,1.789,4,4S22.215,108,20.004,108z"/>
	<path style="fill:#3A3847;" d="M20.004,132h-8c-2.211,0-4-1.789-4-4s1.789-4,4-4h8c2.211,0,4,1.789,4,4S22.215,132,20.004,132z"/>
	<path style="fill:#3A3847;" d="M20.004,156h-8c-2.211,0-4-1.789-4-4s1.789-4,4-4h8c2.211,0,4,1.789,4,4S22.215,156,20.004,156z"/>
	<path style="fill:#3A3847;" d="M20.004,180h-8c-2.211,0-4-1.789-4-4s1.789-4,4-4h8c2.211,0,4,1.789,4,4S22.215,180,20.004,180z"/>
	<path style="fill:#3A3847;" d="M20.004,204h-8c-2.211,0-4-1.789-4-4s1.789-4,4-4h8c2.211,0,4,1.789,4,4S22.215,204,20.004,204z"/>
	<path style="fill:#3A3847;" d="M20.004,228h-8c-2.211,0-4-1.789-4-4s1.789-4,4-4h8c2.211,0,4,1.789,4,4S22.215,228,20.004,228z"/>
	<path style="fill:#3A3847;" d="M20.004,252h-8c-2.211,0-4-1.789-4-4s1.789-4,4-4h8c2.211,0,4,1.789,4,4S22.215,252,20.004,252z"/>
	<path style="fill:#3A3847;" d="M20.004,276h-8c-2.211,0-4-1.789-4-4s1.789-4,4-4h8c2.211,0,4,1.789,4,4S22.215,276,20.004,276z"/>
	<path style="fill:#3A3847;" d="M20.004,300h-8c-2.211,0-4-1.789-4-4s1.789-4,4-4h8c2.211,0,4,1.789,4,4S22.215,300,20.004,300z"/>
	<path style="fill:#3A3847;" d="M20.004,324h-8c-2.211,0-4-1.789-4-4s1.789-4,4-4h8c2.211,0,4,1.789,4,4S22.215,324,20.004,324z"/>
	<path style="fill:#3A3847;" d="M20.004,348h-8c-2.211,0-4-1.789-4-4s1.789-4,4-4h8c2.211,0,4,1.789,4,4S22.215,348,20.004,348z"/>
	<path style="fill:#3A3847;" d="M20.004,372h-8c-2.211,0-4-1.789-4-4s1.789-4,4-4h8c2.211,0,4,1.789,4,4S22.215,372,20.004,372z"/>
	<path style="fill:#3A3847;" d="M84.004,108h-32c-2.211,0-4-1.789-4-4s1.789-4,4-4h32c2.211,0,4,1.789,4,4S86.215,108,84.004,108z"
		/>
	<path style="fill:#3A3847;" d="M228.004,132h-112c-2.211,0-4-1.789-4-4s1.789-4,4-4h112c2.211,0,4,1.789,4,4
		S230.215,132,228.004,132z"/>
	<path style="fill:#3A3847;" d="M100.004,132h-40c-2.211,0-4-1.789-4-4s1.789-4,4-4h40c2.211,0,4,1.789,4,4S102.215,132,100.004,132
		z"/>
	<path style="fill:#3A3847;" d="M324,156H220.004c-2.211,0-4-1.789-4-4s1.789-4,4-4H324c2.211,0,4,1.789,4,4S326.211,156,324,156z"
		/>
	<path style="fill:#3A3847;" d="M372,156h-32c-2.211,0-4-1.789-4-4s1.789-4,4-4h32c2.211,0,4,1.789,4,4S374.211,156,372,156z"/>
	<path style="fill:#3A3847;" d="M204.004,156h-136c-2.211,0-4-1.789-4-4s1.789-4,4-4h136c2.211,0,4,1.789,4,4
		S206.215,156,204.004,156z"/>
	<path style="fill:#3A3847;" d="M92.004,204h-24c-2.211,0-4-1.789-4-4s1.789-4,4-4h24c2.211,0,4,1.789,4,4S94.215,204,92.004,204z"
		/>
	<path style="fill:#3A3847;" d="M226.754,204h-118.75c-2.211,0-4-1.789-4-4s1.789-4,4-4h118.75c2.211,0,4,1.789,4,4
		S228.965,204,226.754,204z"/>
	<path style="fill:#3A3847;" d="M260.004,180h-184c-2.211,0-4-1.789-4-4s1.789-4,4-4h184c2.211,0,3.996,1.789,3.996,4
		S262.215,180,260.004,180z"/>
	<path style="fill:#3A3847;" d="M252.004,228h-72c-2.211,0-4-1.789-4-4s1.789-4,4-4h72c2.211,0,4,1.789,4,4S254.215,228,252.004,228
		z"/>
	<path style="fill:#3A3847;" d="M196.004,252h-136c-2.211,0-4-1.789-4-4s1.789-4,4-4h136c2.211,0,4,1.789,4,4
		S198.215,252,196.004,252z"/>
	<path style="fill:#3A3847;" d="M124.004,348h-64c-2.211,0-4-1.789-4-4s1.789-4,4-4h64c2.211,0,4,1.789,4,4S126.215,348,124.004,348
		z"/>
	<path style="fill:#3A3847;" d="M284,276H172.004c-2.211,0-4-1.789-4-4s1.789-4,4-4H284c2.211,0,4,1.789,4,4S286.211,276,284,276z"
		/>
	<path style="fill:#3A3847;" d="M308,276h-8c-2.211,0-4-1.789-4-4s1.789-4,4-4h8c2.211,0,4,1.789,4,4S310.211,276,308,276z"/>
	<path style="fill:#3A3847;" d="M156.004,276h-88c-2.211,0-4-1.789-4-4s1.789-4,4-4h88c2.211,0,4,1.789,4,4S158.215,276,156.004,276
		z"/>
	<path style="fill:#3A3847;" d="M180.004,300h-112c-2.211,0-4-1.789-4-4s1.789-4,4-4h112c2.211,0,4,1.789,4,4
		S182.215,300,180.004,300z"/>
	<path style="fill:#3A3847;" d="M156.004,324h-88c-2.211,0-4-1.789-4-4s1.789-4,4-4h88c2.211,0,4,1.789,4,4S158.215,324,156.004,324
		z"/>
	<path style="fill:#3A3847;" d="M84.004,372h-32c-2.211,0-4-1.789-4-4s1.789-4,4-4h32c2.211,0,4,1.789,4,4S86.215,372,84.004,372z"
		/>
	<path style="fill:#3A3847;" d="M260.004,252h-48c-2.211,0-4-1.789-4-4s1.789-4,4-4h48c2.211,0,3.996,1.789,3.996,4
		S262.215,252,260.004,252z"/>
	<path style="fill:#3A3847;" d="M324,228h-56c-2.211,0-4-1.789-4-4s1.789-4,4-4h56c2.211,0,4,1.789,4,4S326.211,228,324,228z"/>
	<path style="fill:#3A3847;" d="M164.004,228h-96c-2.211,0-4-1.789-4-4s1.789-4,4-4h96c2.211,0,4,1.789,4,4S166.215,228,164.004,228
		z"/>
	<path style="fill:#3A3847;" d="M236,300h-39.992c-2.211,0-4-1.789-4-4s1.789-4,4-4H236c2.211,0,4,1.789,4,4S238.211,300,236,300z"
		/>
	<path style="fill:#3A3847;" d="M180,324h-7.992c-2.211,0-4-1.789-4-4s1.789-4,4-4H180c2.211,0,4,1.789,4,4S182.211,324,180,324z"/>
	<path style="fill:#3A3847;" d="M452,348H340c-2.211,0-4-1.789-4-4s1.789-4,4-4h112c2.211,0,4,1.789,4,4S454.211,348,452,348z"/>
	<path style="fill:#3A3847;" d="M412.805,444h-33.609c-2.211,0-4-1.789-4-4s1.789-4,4-4h33.609c2.211,0,4,1.789,4,4
		S415.016,444,412.805,444z"/>
	<path style="fill:#3A3847;" d="M268,404H4c-2.211,0-4-1.789-4-4s1.789-4,4-4h264c2.211,0,4,1.789,4,4S270.211,404,268,404z"/>
	<path style="fill:#3A3847;" d="M444,228c-2.211,0-4-1.789-4-4V72c0-2.211,1.789-4,4-4s4,1.789,4,4v152
		C448,226.211,446.211,228,444,228z"/>
	<path style="fill:#3A3847;" d="M340,460c-33.086,0-60-26.914-60-60s26.914-60,60-60c2.211,0,4,1.789,4,4s-1.789,4-4,4
		c-28.672,0-52,23.328-52,52s23.328,52,52,52c13.688,0,26.617-5.281,36.391-14.859c1.594-1.547,4.125-1.516,5.656,0.063
		c1.547,1.578,1.531,4.109-0.047,5.656C370.719,453.906,355.797,460,340,460z"/>
	<path style="fill:#3A3847;" d="M452,460c-15.797,0-30.719-6.094-42-17.141c-1.578-1.547-1.594-4.078-0.047-5.656
		c1.531-1.578,4.063-1.609,5.656-0.063C425.383,446.719,438.313,452,452,452c28.672,0,52-23.328,52-52s-23.328-52-52-52
		c-2.211,0-4-1.789-4-4s1.789-4,4-4c33.086,0,60,26.914,60,60S485.086,460,452,460z"/>
	<path style="fill:#3A3847;" d="M340,428c-15.438,0-28-12.563-28-28s12.563-28,28-28s28,12.563,28,28S355.438,428,340,428z M340,380
		c-11.031,0-20,8.969-20,20s8.969,20,20,20s20-8.969,20-20S351.031,380,340,380z"/>
	<path style="fill:#3A3847;" d="M340,412c-2.211,0-4-1.789-4-4v-16c0-2.211,1.789-4,4-4s4,1.789,4,4v16
		C344,410.211,342.211,412,340,412z"/>
	<path style="fill:#3A3847;" d="M348,404h-16.406c-2.211,0-4-1.789-4-4s1.789-4,4-4H348c2.211,0,4,1.789,4,4S350.211,404,348,404z"
		/>
	<path style="fill:#3A3847;" d="M432.703,400.156c-5.563,0-10.359-3.781-11.656-9.203c-0.75-3.125-0.234-6.344,1.438-9.078
		c1.68-2.727,4.328-4.641,7.438-5.391c6.375-1.539,12.953,2.539,14.469,8.875c0.75,3.125,0.234,6.352-1.445,9.086
		c-1.68,2.727-4.32,4.641-7.445,5.383C434.594,400.047,433.648,400.156,432.703,400.156z M432.719,384.156
		c-0.313,0-0.625,0.031-0.938,0.109c-1.031,0.25-1.922,0.891-2.477,1.797s-0.727,1.984-0.477,3.016
		c0.508,2.125,2.688,3.484,4.813,2.969c1.047-0.25,1.938-0.883,2.492-1.797c0.555-0.906,0.727-1.984,0.477-3.016
		C436.172,385.422,434.578,384.156,432.719,384.156z"/>
	<path style="fill:#3A3847;" d="M463.828,392.719c-5.578,0-10.367-3.789-11.656-9.219c-0.75-3.109-0.234-6.328,1.438-9.063
		c1.68-2.727,4.328-4.641,7.438-5.391c6.383-1.5,12.945,2.539,14.469,8.875c1.531,6.438-2.453,12.922-8.875,14.469
		C465.719,392.609,464.766,392.719,463.828,392.719z M463.859,376.719c-0.313,0-0.633,0.031-0.938,0.109
		c-1.047,0.25-1.938,0.891-2.492,1.797s-0.727,1.984-0.477,3.016c0.5,2.125,2.672,3.484,4.813,2.969
		c2.148-0.516,3.484-2.68,2.969-4.828C467.297,377.984,465.703,376.719,463.859,376.719z"/>
	<path style="fill:#3A3847;" d="M440.141,431.281c-5.563,0-10.359-3.781-11.656-9.203c-1.531-6.438,2.453-12.922,8.875-14.469
		c6.391-1.531,12.961,2.547,14.469,8.891c0.75,3.109,0.234,6.328-1.438,9.063c-1.68,2.727-4.328,4.641-7.438,5.391
		C442.031,431.172,441.086,431.281,440.141,431.281z M440.172,415.281c-0.313,0-0.633,0.031-0.938,0.109
		c-2.148,0.516-3.484,2.68-2.969,4.828c0.5,2.109,2.688,3.477,4.813,2.953c1.047-0.25,1.938-0.891,2.492-1.797
		s0.727-1.984,0.477-3.016C443.617,416.539,442.023,415.281,440.172,415.281z"/>
	<path style="fill:#3A3847;" d="M471.281,423.844c-5.57,0-10.375-3.781-11.672-9.203c-0.75-3.125-0.234-6.352,1.445-9.086
		c1.68-2.727,4.32-4.641,7.445-5.383c6.313-1.508,12.938,2.547,14.453,8.875c0.75,3.125,0.234,6.344-1.445,9.078
		c-1.68,2.727-4.32,4.641-7.43,5.391C473.156,423.734,472.219,423.844,471.281,423.844z M471.297,407.844
		c-0.313,0-0.633,0.031-0.938,0.109c-1.047,0.25-1.938,0.883-2.492,1.797c-0.555,0.906-0.727,1.984-0.477,3.016
		c0.516,2.125,2.703,3.5,4.828,2.969c1.031-0.25,1.914-0.891,2.469-1.797c0.563-0.906,0.734-1.984,0.484-3.016
		C474.734,409.109,473.141,407.844,471.297,407.844z"/>
	<path style="fill:#3A3847;" d="M430.859,384.375c-1.813,0-3.453-1.234-3.891-3.07c-0.516-2.148,0.813-4.305,2.961-4.82
		l31.125-7.438c2.164-0.484,4.305,0.813,4.82,2.961s-0.813,4.305-2.961,4.82l-31.125,7.438
		C431.477,384.344,431.164,384.375,430.859,384.375z"/>
	<path style="fill:#3A3847;" d="M434.578,399.938c-1.813,0-3.453-1.234-3.891-3.07c-0.516-2.148,0.813-4.305,2.961-4.82
		l31.125-7.438c2.148-0.5,4.305,0.813,4.82,2.961s-0.813,4.305-2.961,4.82l-31.125,7.438
		C435.195,399.906,434.883,399.938,434.578,399.938z"/>
	<path style="fill:#3A3847;" d="M438.297,415.5c-1.813,0-3.453-1.234-3.891-3.07c-0.516-2.148,0.813-4.305,2.961-4.82l31.125-7.438
		c2.148-0.5,4.313,0.813,4.82,2.961c0.516,2.148-0.813,4.305-2.961,4.82l-31.125,7.438C438.914,415.469,438.602,415.5,438.297,415.5
		z"/>
	<path style="fill:#3A3847;" d="M442.016,431.063c-1.813,0-3.453-1.234-3.891-3.07c-0.516-2.148,0.813-4.305,2.961-4.82
		l31.125-7.438c2.164-0.484,4.313,0.813,4.82,2.961c0.516,2.148-0.813,4.305-2.961,4.82l-31.125,7.438
		C442.633,431.031,442.32,431.063,442.016,431.063z"/>
	<path style="fill:#3A3847;" d="M388,420h-8c-2.211,0-4-1.789-4-4s1.789-4,4-4h8c2.211,0,4,1.789,4,4S390.211,420,388,420z"/>
	<path style="fill:#3A3847;" d="M412,420h-8c-2.211,0-4-1.789-4-4s1.789-4,4-4h8c2.211,0,4,1.789,4,4S414.211,420,412,420z"/>
	<path style="fill:#3A3847;" d="M392,340c-2.211,0-4-1.789-4-4v-16c0-2.211,1.789-4,4-4s4,1.789,4,4v16
		C396,338.211,394.211,340,392,340z"/>
	<path style="fill:#3A3847;" d="M392,324c-2.211,0-4-1.789-4-4c0-11.031,8.969-20,20-20c2.211,0,4,1.789,4,4s-1.789,4-4,4
		c-6.617,0-12,5.383-12,12C396,322.211,394.211,324,392,324z"/>
	<path style="fill:#3A3847;" d="M428,308c-2.211,0-4-1.789-4-4s1.789-4,4-4c6.617,0,12-5.383,12-12c0-2.211,1.789-4,4-4s4,1.789,4,4
		C448,299.031,439.031,308,428,308z"/>
	<path style="fill:#3A3847;" d="M428,244c-2.211,0-4-1.789-4-4s1.789-4,4-4c6.617,0,12-5.383,12-12c0-2.211,1.789-4,4-4s4,1.789,4,4
		C448,235.027,439.031,244,428,244z"/>
	<path style="fill:#3A3847;" d="M444,292c-2.211,0-4-1.789-4-4c0-6.617-5.383-12-12-12c-2.211,0-4-1.789-4-4s1.789-4,4-4
		c11.031,0,20,8.969,20,20C448,290.211,446.211,292,444,292z"/>
	<path style="fill:#3A3847;" d="M356,260c-2.211,0-4-1.789-4-4c0-11.027,8.969-20,20-20c2.211,0,4,1.789,4,4s-1.789,4-4,4
		c-6.617,0-12,5.383-12,12C360,258.211,358.211,260,356,260z"/>
	<path style="fill:#3A3847;" d="M372,276c-11.031,0-20-8.969-20-20c0-2.211,1.789-4,4-4s4,1.789,4,4c0,6.617,5.383,12,12,12
		c2.211,0,4,1.789,4,4S374.211,276,372,276z"/>
	<path style="fill:#3A3847;" d="M428,308h-20c-2.211,0-4-1.789-4-4s1.789-4,4-4h20c2.211,0,4,1.789,4,4S430.211,308,428,308z"/>
	<path style="fill:#3A3847;" d="M428,276h-56c-2.211,0-4-1.789-4-4s1.789-4,4-4h56c2.211,0,4,1.789,4,4S430.211,276,428,276z"/>
	<path style="fill:#3A3847;" d="M428,244h-56c-2.211,0-4-1.789-4-4s1.789-4,4-4h56c2.211,0,4,1.789,4,4S430.211,244,428,244z"/>
</g>
<g>
</g>
<g>
</g>
<g>
</g>
<g>
</g>
<g>
</g>
<g>
</g>
<g>
</g>
<g>
</g>
<g>
</g>
<g>
</g>
<g>
</g>
<g>
</g>
<g>
</g>
<g>
</g>
<g>
</g>
</svg>
